<?xml version="1.0"?>
<svg xmlns="http://www.w3.org/2000/svg" width="160.2mm" height="54.15mm" version="1.1" viewBox="0 0 160.2 54.15">
  <g transform="translate(-619.9 -481.2)" fill="currentColor">
    <path d="m723.2 489.1c-1.895 0-3.327-1.485-3.327-3.378 0-1.791 1.637-3.019 3.327-3.019 1.739 0 3.069 1.484 3.069 3.172 0 1.689-1.33 3.225-3.069 3.225z"/>
    <path d="m731 515.7v-0.153c2.252-1.28 1.945-3.174 1.945-5.528v-12.23c0-2.354 0.307-4.196-1.894-5.475v-0.154h3.276c1.178 0 2.405-0.0511 3.121-0.6651h0.154v3.889c1.126-2.303 3.48-3.889 6.039-3.889l1.842 0.153v4.709c-0.562-0.615-1.484-0.8185-2.354-0.8185-3.889 0-5.527 2.047-5.527 7.318v7.164c0 2.354-0.3069 4.248 1.945 5.528v0.153z"/>
    <path d="m719.1 515.7v-0.153c2.253-1.28 1.945-3.174 1.945-5.528v-12.23c0-2.354 0.3079-4.196-1.945-5.475v-0.154h3.123c1.176 0 2.457-0.0511 3.327-0.8191h0.153v18.68c0 2.354-0.3084 4.248 1.945 5.528v0.153z"/>
    <path d="m674.6 515.7v-0.153c2.252-1.28 1.944-3.174 1.944-5.528v-12.23c0-2.354 0.3079-4.196-1.944-5.475v-0.154h3.275c1.126 0 2.354-0.0511 3.173-0.6651h0.153v4.043c1.791-2.764 3.787-4.043 7.216-4.043 3.634 0 6.09 1.433 7.984 4.452 1.996-2.763 4.401-4.452 8.188-4.452 7.267 0 9.16 4.145 9.16 10.64v7.881c0 2.201-0.3059 4.708 2.252 5.528v0.153h-8.853v-0.153c2.251-1.28 1.944-3.174 1.944-5.528v-6.601c0-5.22-1.638-8.547-5.731-8.547-4.606 0-5.886 2.917-5.886 7.728v7.42c0 2.354-0.3069 4.248 1.945 5.528v0.153h-8.546v-0.153c2.251-1.28 1.944-3.174 1.944-5.528v-7.062c0-5.373-2.661-8.086-5.834-8.086-3.889 0-5.783 2.406-5.783 7.319v7.829c0 2.354-0.307 4.197 1.894 5.528v0.153z"/>
    <path d="m771.7 515.7v-0.153c2.201-1.28 1.896-3.174 1.896-5.528v-22.31c0-2.354 0.3055-4.248-1.896-5.527v-0.154h3.123c1.176 0 2.507 0.0514 3.275-0.8186h0.153v28.81c0 2.354-0.3565 4.248 1.894 5.528v0.153z"/>
    <path d="m657.9 516.3c-7.471 0-12.95-4.759-12.95-12.38 0-6.909 5.117-12.49 12.13-12.49 2.867 0 5.732 1.074 7.882 2.968v-6.755c0-2.354 0.3069-4.197-1.945-5.527v-0.154h3.48c1.177 0 2.405 4.5e-4 2.968-0.8186h0.154v28.86c0 2.355-0.307 4.248 1.944 5.477v0.153h-6.601v-10.95c0-2.047 0.1529-4.299-0.8191-6.192-1.28-2.456-3.889-3.685-6.602-3.685-4.094 0-7.42 3.736-7.42 8.393 0 5.169 3.684 9.723 9.058 9.723 1.637 0 3.019-0.6142 4.401-1.484l-3.019 4.606c-0.87 0.256-1.74 0.2558-2.662 0.2558z"/>
    <path d="m753.8 516.3c-5.169 0-8.751-3.275-8.751-7.523 0-9.519 15.3-5.118 15.3-10.7 0-2.456-3.02-3.275-4.913-3.275-2.61 0-4.657 0.9719-6.959 2.047l3.428-5.117 3.326-0.307c5.528 0 9.724 1.586 9.775 7.778v7.677c0 4.042 0.1016 5.577 4.351 6.038l-2.253 3.378c-3.377-0.205-6.755-1.228-6.755-5.323v-8.085c-1.484 0.767-3.223 1.177-4.913 1.586-2.456 0.563-5.219 1.126-5.219 4.248 0 3.173 2.865 4.196 5.578 4.196 1.228 0 2.456-0.3577 3.685-0.7168l-3.021 3.839c-0.869 0.153-1.79 0.2558-2.66 0.2558z"/>
    <path d="m628.7 516.3c-5.169 0-8.751-3.275-8.751-7.523 0-9.519 15.3-5.118 15.3-10.7 0-2.456-3.02-3.275-4.913-3.275-2.61 0-4.657 0.9719-6.96 2.047l3.429-5.117 3.326-0.307c5.527 0 9.723 1.586 9.775 7.778v7.677c0 4.042 0.1021 5.577 4.35 6.038l-2.252 3.378c-3.378-0.205-6.755-1.228-6.755-5.323v-8.085c-1.484 0.767-3.224 1.177-4.913 1.586-2.457 0.563-5.22 1.126-5.22 4.248 0 3.173 2.866 4.196 5.578 4.196 1.228 0 2.456-0.3577 3.685-0.7168l-3.02 3.839c-0.87 0.153-1.791 0.2558-2.661 0.2558z"/>
    <path d="m733.8 535.2v-8.93h0.9168l5.45 6.59c0.149 0.173 0.2479 0.309 0.3349 0.433 0.086 0.149 0.148 0.2482 0.247 0.4832-0.099-0.446-0.1612-0.9038-0.1612-1.164v-6.342h1.078v8.93h-0.8666l-5.525-6.601c-0.297-0.36-0.3841-0.4962-0.5571-0.8682 0.099 0.459 0.1612 0.8551 0.1612 1.066v6.403z"/>
    <path d="m715.9 535.2v-8.93h1.969c0.496 0 0.8551 0.0368 1.128 0.0858 1.115 0.273 1.808 1.226 1.808 2.465 0 1.326-0.718 2.143-2.143 2.428l2.701 3.951h-1.314l-3.072-4.619v4.619zm1.077-4.657h0.831c1.201 0 1.907-0.6444 1.907-1.722 0-1.04-0.6314-1.61-1.846-1.61h-0.8919z"/>
    <path d="m698.6 535.2v-8.93h4.571v0.941h-3.493v2.638h2.997v0.9296h-2.997v3.48h3.666v0.941z"/>
    <path d="m682.1 535.2-3.307-8.93h1.164l2.292 6.453c0.136 0.347 0.1979 0.6562 0.2599 1.115 0.062-0.459 0.1359-0.7682 0.2599-1.115l2.291-6.453h1.165l-3.308 8.93z"/>
    <path d="m658.1 535.2 3.716-8.93h0.941l3.729 8.93h-1.152l-1.041-2.477h-4.013l-1.028 2.477zm2.564-3.418h3.245l-1.362-3.456c-0.149-0.371-0.1979-0.5452-0.2599-0.9291-0.05 0.384-0.099 0.5701-0.248 0.9291z"/>
    <path d="m642.4 535.2v-7.902h-2.23v-1.028h5.562v1.028h-2.255v7.902z"/>
    <path d="m757 535.3c-1.325 0-2.266-0.6069-2.898-1.846l0.8671-0.569c0.52 0.966 1.202 1.424 2.118 1.424 0.979 0 1.772-0.718 1.772-1.648 0-0.396-0.1604-0.7298-0.4584-0.9648-0.285-0.211-0.719-0.4222-1.449-0.7312-1.14-0.471-1.251-0.5198-1.622-0.8547-0.434-0.396-0.694-0.9782-0.694-1.61 0-1.412 1.102-2.44 2.6-2.44 0.67 0 1.165 0.1485 1.661 0.5075 0.384 0.285 0.619 0.5579 0.879 1.029l-0.9168 0.4697c-0.322-0.693-0.8792-1.065-1.623-1.065-0.842 0-1.486 0.595-1.486 1.387 0 0.335 0.1374 0.6452 0.3354 0.8552 0.248 0.26 0.4207 0.359 1.425 0.756 0.767 0.31 1.226 0.5449 1.597 0.8289 0.533 0.397 0.8552 1.041 0.8552 1.747 0 1.598-1.214 2.725-2.961 2.725z"/>
  </g>
</svg>