<svg width="150" height="150" viewBox="0 0 150 150" fill="none" xmlns="http://www.w3.org/2000/svg">
<rect width="150" height="150" fill="white"/>
<path d="M35.5707 34L34.0107 30.376H26.9787L25.4187 34H21.4347L28.6827 17.224H32.3067L39.5547 34H35.5707ZM30.5067 22.216L28.3947 27.088H32.5947L30.5067 22.216ZM47.1818 34H43.4618L39.0698 21.088H42.7898L45.3098 28.888L47.8298 21.088H51.3098L53.8298 28.888L56.3498 21.088H60.0938L55.7018 34H51.9578L49.5818 26.968L47.1818 34ZM72.9454 34H69.5614V32.44C68.6334 33.608 67.4814 34.192 66.1054 34.192C64.7454 34.192 63.6014 33.8 62.6734 33.016C61.7454 32.216 61.2814 31.16 61.2814 29.848C61.2814 28.52 61.7614 27.528 62.7214 26.872C63.6814 26.216 64.9934 25.888 66.6574 25.888H69.3454V25.816C69.3454 24.44 68.6174 23.752 67.1614 23.752C66.5374 23.752 65.8734 23.88 65.1694 24.136C64.4814 24.376 63.8974 24.68 63.4174 25.048L61.8094 22.72C63.5054 21.488 65.4414 20.872 67.6174 20.872C69.1854 20.872 70.4654 21.264 71.4574 22.048C72.4494 22.832 72.9454 24.072 72.9454 25.768V34ZM69.3214 29.08V28.456H67.0654C65.6254 28.456 64.9054 28.904 64.9054 29.8C64.9054 30.264 65.0734 30.624 65.4094 30.88C65.7614 31.12 66.2574 31.24 66.8974 31.24C67.5374 31.24 68.0974 31.048 68.5774 30.664C69.0734 30.264 69.3214 29.736 69.3214 29.08ZM79.8274 34H76.2274V21.088H79.8274V34ZM76.5154 19.456C76.1154 19.04 75.9154 18.536 75.9154 17.944C75.9154 17.352 76.1154 16.856 76.5154 16.456C76.9314 16.04 77.4354 15.832 78.0274 15.832C78.6194 15.832 79.1154 16.04 79.5154 16.456C79.9314 16.856 80.1394 17.352 80.1394 17.944C80.1394 18.536 79.9314 19.04 79.5154 19.456C79.1154 19.856 78.6194 20.056 78.0274 20.056C77.4354 20.056 76.9314 19.856 76.5154 19.456ZM87.5312 23.68V29.464C87.5312 29.96 87.6593 30.352 87.9153 30.64C88.1713 30.912 88.4753 31.048 88.8273 31.048C89.4993 31.048 90.0673 30.744 90.5313 30.136L91.8753 32.656C90.7553 33.68 89.5713 34.192 88.3233 34.192C87.0913 34.192 86.0433 33.784 85.1793 32.968C84.3313 32.152 83.9073 31.04 83.9073 29.632V23.68H82.3953V21.088H83.9073V17.224H87.5312V21.088H90.6513V23.68H87.5312ZM97.4056 34H93.8056V21.088H97.4056V34ZM94.0936 19.456C93.6936 19.04 93.4936 18.536 93.4936 17.944C93.4936 17.352 93.6936 16.856 94.0936 16.456C94.5096 16.04 95.0136 15.832 95.6056 15.832C96.1976 15.832 96.6936 16.04 97.0936 16.456C97.5096 16.856 97.7176 17.352 97.7176 17.944C97.7176 18.536 97.5096 19.04 97.0936 19.456C96.6936 19.856 96.1976 20.056 95.6056 20.056C95.0136 20.056 94.5096 19.856 94.0936 19.456ZM104.413 26.8V34H100.813V21.088H104.413V22.528C105.501 21.424 106.725 20.872 108.085 20.872C109.445 20.872 110.581 21.352 111.493 22.312C112.421 23.272 112.885 24.552 112.885 26.152V34H109.285V26.704C109.285 24.72 108.557 23.728 107.101 23.728C106.381 23.728 105.749 23.992 105.205 24.52C104.677 25.032 104.413 25.792 104.413 26.8ZM125.19 27.28C125.19 26.24 124.902 25.424 124.326 24.832C123.75 24.24 123.038 23.944 122.19 23.944C121.342 23.944 120.606 24.24 119.982 24.832C119.374 25.424 119.07 26.232 119.07 27.256C119.07 28.28 119.366 29.112 119.958 29.752C120.566 30.376 121.302 30.688 122.166 30.688C123.03 30.688 123.75 30.376 124.326 29.752C124.902 29.128 125.19 28.304 125.19 27.28ZM125.694 31.816C124.558 33.08 123.142 33.712 121.446 33.712C119.766 33.712 118.342 33.144 117.174 32.008C116.022 30.856 115.446 29.328 115.446 27.424C115.446 25.504 116.038 23.936 117.222 22.72C118.422 21.488 119.79 20.872 121.326 20.872C122.862 20.872 124.134 21.504 125.142 22.768V21.064H128.742V32.32C128.742 33.472 128.542 34.496 128.142 35.392C127.742 36.288 127.206 36.992 126.534 37.504C125.206 38.56 123.638 39.088 121.83 39.088C120.87 39.088 119.886 38.928 118.878 38.608C117.886 38.304 117.014 37.864 116.262 37.288L117.654 34.576C118.838 35.472 120.086 35.92 121.398 35.92C122.726 35.92 123.774 35.592 124.542 34.936C125.31 34.28 125.694 33.24 125.694 31.816Z" fill="#004712"/>
<path d="M36.7788 39.224H40.5228V56H36.7788V39.224ZM56.1498 49.04V56H52.5258V48.944C52.5258 47.92 52.3658 47.168 52.0458 46.688C51.7418 46.208 51.2378 45.968 50.5338 45.968C49.8458 45.968 49.2298 46.232 48.6858 46.76C48.1578 47.272 47.8938 48.032 47.8938 49.04V56H44.2938V43.088H47.8938V44.552C48.8858 43.432 50.0218 42.872 51.3018 42.872C52.1178 42.872 52.8538 43.112 53.5098 43.592C54.1818 44.072 54.6858 44.656 55.0218 45.344C55.5178 44.56 56.1818 43.952 57.0138 43.52C57.8618 43.088 58.7098 42.872 59.5578 42.872C61.0778 42.872 62.3018 43.328 63.2298 44.24C64.1578 45.136 64.6218 46.44 64.6218 48.152V56H60.9978V48.944C60.9978 46.96 60.2698 45.968 58.8138 45.968C58.0938 45.968 57.4698 46.232 56.9418 46.76C56.4138 47.272 56.1498 48.032 56.1498 49.04ZM78.8634 56H75.4794V54.44C74.5514 55.608 73.3994 56.192 72.0234 56.192C70.6634 56.192 69.5194 55.8 68.5914 55.016C67.6634 54.216 67.1994 53.16 67.1994 51.848C67.1994 50.52 67.6794 49.528 68.6394 48.872C69.5994 48.216 70.9114 47.888 72.5754 47.888H75.2634V47.816C75.2634 46.44 74.5354 45.752 73.0794 45.752C72.4554 45.752 71.7914 45.88 71.0874 46.136C70.3994 46.376 69.8154 46.68 69.3354 47.048L67.7274 44.72C69.4234 43.488 71.3594 42.872 73.5354 42.872C75.1034 42.872 76.3834 43.264 77.3754 44.048C78.3674 44.832 78.8634 46.072 78.8634 47.768V56ZM75.2394 51.08V50.456H72.9834C71.5434 50.456 70.8234 50.904 70.8234 51.8C70.8234 52.264 70.9914 52.624 71.3274 52.88C71.6794 53.12 72.1754 53.24 72.8154 53.24C73.4554 53.24 74.0154 53.048 74.4954 52.664C74.9914 52.264 75.2394 51.736 75.2394 51.08ZM91.1934 49.28C91.1934 48.24 90.9054 47.424 90.3294 46.832C89.7534 46.24 89.0414 45.944 88.1934 45.944C87.3454 45.944 86.6094 46.24 85.9854 46.832C85.3774 47.424 85.0734 48.232 85.0734 49.256C85.0734 50.28 85.3694 51.112 85.9614 51.752C86.5694 52.376 87.3054 52.688 88.1694 52.688C89.0334 52.688 89.7534 52.376 90.3294 51.752C90.9054 51.128 91.1934 50.304 91.1934 49.28ZM91.6974 53.816C90.5614 55.08 89.1454 55.712 87.4494 55.712C85.7694 55.712 84.3454 55.144 83.1774 54.008C82.0254 52.856 81.4494 51.328 81.4494 49.424C81.4494 47.504 82.0414 45.936 83.2254 44.72C84.4254 43.488 85.7934 42.872 87.3294 42.872C88.8654 42.872 90.1374 43.504 91.1454 44.768V43.064H94.7454V54.32C94.7454 55.472 94.5454 56.496 94.1454 57.392C93.7454 58.288 93.2094 58.992 92.5374 59.504C91.2094 60.56 89.6414 61.088 87.8334 61.088C86.8734 61.088 85.8894 60.928 84.8814 60.608C83.8894 60.304 83.0174 59.864 82.2654 59.288L83.6574 56.576C84.8414 57.472 86.0894 57.92 87.4014 57.92C88.7294 57.92 89.7774 57.592 90.5454 56.936C91.3134 56.28 91.6974 55.24 91.6974 53.816ZM109.337 54.128C107.881 55.504 106.169 56.192 104.201 56.192C102.249 56.192 100.633 55.592 99.3532 54.392C98.0732 53.176 97.4332 51.552 97.4332 49.52C97.4332 47.488 98.0812 45.872 99.3772 44.672C100.689 43.472 102.233 42.872 104.009 42.872C105.785 42.872 107.289 43.408 108.521 44.48C109.769 45.552 110.393 47.024 110.393 48.896V50.816H100.985C101.097 51.52 101.465 52.096 102.089 52.544C102.713 52.992 103.417 53.216 104.201 53.216C105.465 53.216 106.505 52.792 107.321 51.944L109.337 54.128ZM106.745 48.248C106.665 47.48 106.377 46.888 105.881 46.472C105.385 46.056 104.777 45.848 104.057 45.848C103.353 45.848 102.705 46.064 102.113 46.496C101.521 46.928 101.177 47.512 101.081 48.248H106.745Z" fill="#004712"/>
<g opacity="0.75" clip-path="url(#clip0)">
<path d="M63.7197 69C62.243 69 60.791 69.5029 59.3635 70.5089C57.936 71.5149 56.9513 72.7049 56.4098 74.0789L54.2686 79.7467H44.8172C41.8391 79.7467 39.2918 80.8018 37.1751 82.9119C35.0584 85.022 34 87.5734 34 90.5668V128.254C34 131.198 35.0584 133.725 37.1751 135.835C39.2918 137.945 41.8391 139 44.8172 139H104.22C107.198 139 109.733 137.945 111.825 135.835C113.942 133.725 115 131.198 115 128.254V90.5668C115 87.5734 113.942 85.022 111.825 82.9119C109.733 80.8018 107.198 79.7467 104.22 79.7467H94.7685L92.5902 74.0789C92.0487 72.7049 91.0644 71.5149 89.6368 70.5089C88.2339 69.5029 86.7941 69 85.3174 69H63.7197ZM74.5274 87.6227C86.5265 87.6227 96.3196 97.3851 96.3196 109.347C96.3196 121.308 86.5265 131.071 74.5274 131.071C62.5282 131.071 52.7336 121.308 52.7336 109.347C52.7336 97.3851 62.5282 87.6227 74.5274 87.6227Z" fill="#78A22F"/>
<path d="M74.5273 93.7959C65.8748 93.7959 58.9263 100.721 58.9263 109.347C58.9263 117.972 65.8748 124.898 74.5273 124.898C83.1798 124.898 90.127 117.972 90.127 109.347C90.127 100.721 83.1798 93.7959 74.5273 93.7959Z" fill="#004712"/>
</g>
<defs>
<clipPath id="clip0">
<rect width="81" height="70" fill="white" transform="translate(34 69)"/>
</clipPath>
</defs>
</svg>
