<svg width="32" height="32" viewBox="0 0 32 32" fill="none" xmlns="http://www.w3.org/2000/svg">
<path d="M29 11.176H26.0976L20.8642 4.33915C20.7219 4.15349 20.5138 4.03369 20.2857 4.00609C20.0577 3.9785 19.8283 4.04537 19.6481 4.19201C19.4679 4.33865 19.3517 4.55303 19.3249 4.788C19.2981 5.02297 19.363 5.25927 19.5053 5.44493L23.8906 11.176H8.45274L12.8265 5.44493C12.8969 5.353 12.9491 5.24767 12.9801 5.13496C13.0111 5.02224 13.0202 4.90434 13.0069 4.788C12.9936 4.67165 12.9583 4.55914 12.9028 4.45688C12.8473 4.35462 12.7729 4.26462 12.6837 4.19201C12.5944 4.1194 12.4922 4.06561 12.3828 4.03371C12.2734 4.00181 12.159 3.99243 12.0461 4.00609C11.9331 4.01975 11.8239 4.0562 11.7247 4.11335C11.6254 4.17049 11.5381 4.24722 11.4676 4.33915L6.23414 11.176H3.00001C3.00016 11.7688 2.99995 12.3697 3.00001 12.9595H4.28963L5.90236 23.0275C6.03854 23.8575 6.45526 24.6112 7.07881 25.1552C7.70235 25.6992 8.49254 25.9984 9.3096 26H22.6904C23.5075 25.9984 24.2977 25.6992 24.9212 25.1552C25.5448 24.6112 25.9615 23.8575 26.0976 23.0275L27.7017 12.9744H28.9913C29 12.3505 29 11.5752 28.9913 11.1908L29 11.176ZM24.3984 22.7302C24.3301 23.146 24.1212 23.5234 23.8085 23.7955C23.4958 24.0676 23.0997 24.2168 22.6904 24.2165H9.3096C8.90033 24.2168 8.5042 24.0676 8.19153 23.7955C7.87885 23.5234 7.66986 23.146 7.60165 22.7302L6.04373 12.9654H25.9505L24.3984 22.7302Z" fill="currentColor"/>
</svg>
