<svg width="32" height="32" viewBox="0 0 32 32" fill="none" xmlns="http://www.w3.org/2000/svg">
<path d="M6.77595 7.74629L6.77595 7.74629C7.99136 6.55948 9.32192 6.01251 10.8571 6.01251C12.3901 6.01251 13.3378 6.68856 13.9722 7.39086C14.2987 7.75228 14.5403 8.11992 14.7382 8.43126C14.7509 8.45121 14.764 8.47188 14.7774 8.49303C14.8573 8.61927 14.9481 8.76276 15.0281 8.87205C15.0743 8.9353 15.1508 9.03506 15.2514 9.12728C15.3187 9.18903 15.5845 9.42857 16 9.42857C16.4342 9.42857 16.7034 9.17054 16.7784 9.09505C16.8799 8.9929 16.9527 8.88398 16.9937 8.81967C17.0608 8.71444 17.1374 8.57457 17.2029 8.45496C17.2176 8.42811 17.2318 8.40227 17.2451 8.37808C17.4133 8.07333 17.6208 7.71785 17.9179 7.36956C18.481 6.70954 19.4111 6.01648 21.1281 6.01253C22.6211 6.06012 24.0898 6.63832 25.2244 7.74629L25.9231 7.03082L25.2244 7.74629C27.5983 10.0643 27.5922 13.8628 25.204 16.1952C25.2039 16.1952 25.2038 16.1953 25.2037 16.1954L24.7633 16.6252L24.763 16.6254L17.9369 23.2911L17.9368 23.2912L15.9998 25.1829L13.999 23.2287L13.999 23.2287L7.23654 16.6254L7.2363 16.6252L6.79586 16.1954C4.40754 13.8633 4.40189 10.0645 6.77595 7.74629ZM15.3007 7.75436C15.3007 7.75426 15.3018 7.75257 15.304 7.74956C15.3017 7.75294 15.3006 7.75445 15.3007 7.75436ZM16.6524 7.7045C16.6524 7.70457 16.6515 7.70352 16.6497 7.70117C16.6514 7.70326 16.6523 7.70442 16.6524 7.7045Z" stroke="currentColor" stroke-width="2"/>
</svg>