<svg width="258" height="118" viewBox="0 0 258 118" fill="none" xmlns="http://www.w3.org/2000/svg">
<path d="M187.941 94.6967C187.823 94.4726 187.76 94.3413 187.678 94.179H185.532L184.123 94.8899L185.178 95.2299L184.705 95.732L185.16 96.1879C184.823 96.5897 184.251 96.5511 183.269 95.9716L182.105 97.2774C182.105 97.4164 182.869 97.656 182.324 98.1968L180.451 97.3701H179.151L178.342 96.8756C177.533 96.922 177.342 97.5478 176.842 97.7873H174.115C174.023 97.6636 173.941 97.5345 173.87 97.401C173.806 97.2697 173.779 97.1306 173.724 96.9992C172.715 96.9142 172.715 96.9142 172.006 97.3006H170.57C170.338 97.4871 170.06 97.6281 169.757 97.7135C169.454 97.799 169.133 97.8268 168.815 97.7951C168.515 98.0037 168.197 98.22 167.906 98.4209C168.115 98.6064 168.179 98.7068 168.243 98.7068C170.061 98.7068 171.824 98.7068 173.606 98.7068L174.188 99.1549C174.313 98.9996 174.484 98.8745 174.683 98.7919C174.882 98.7093 175.103 98.672 175.324 98.6836C175.708 98.6193 176.076 98.5019 176.415 98.3359L176.788 98.6604C177.369 98.7532 178.06 98.5677 178.442 99.1549L179.015 98.7145H180.606L181.169 99.1549C181.769 99.3403 181.933 98.8227 182.478 98.6682L183.287 99.0622C183.746 98.779 184.315 98.6547 184.878 98.7145L185.469 99.1549H187.596L188.16 98.7145H189.368C189.368 98.9618 189.45 99.2245 189.514 99.5722L187.569 99.6649L187.123 100.036H185.096L182.569 100.747C182.496 100.808 182.178 101.28 181.733 101.396C181.331 101.477 180.963 101.651 180.669 101.898H177.942C177.878 101.898 177.815 101.797 177.742 101.736C178.051 101.11 178.924 101.774 179.278 101.257C179.278 101.202 179.187 101.102 179.142 101.102L176.142 100.978C176.215 101.573 176.806 101.705 177.051 102.045C177.297 102.385 177.369 102.694 177.615 103.18L176.851 103.466C176.242 103.961 175.297 103.505 174.488 103.945C175.051 104.54 175.851 103.984 176.542 104.324L176.669 104.88C176.279 105.104 176.115 105.522 175.624 105.576C175.46 105.576 175.251 105.529 175.151 105.444C174.842 105.174 174.579 104.88 174.242 104.494C174.106 104.873 174.024 105.073 173.924 105.352C172.815 105.769 171.761 106.526 170.361 106.603C170.307 106.66 170.268 106.725 170.245 106.796C170.222 106.866 170.215 106.939 170.227 107.011C170.238 107.083 170.266 107.153 170.309 107.215C170.352 107.278 170.41 107.333 170.479 107.376L171.052 106.936H173.261C173.35 107.127 173.411 107.327 173.442 107.531C173.442 107.623 173.261 107.724 173.17 107.816L172.615 107.422L172.161 107.809H168.297L167.834 107.415H165.107L164.543 107.84H163.516C163.316 107.994 163.116 108.149 162.825 108.388L161.807 107.894L161.061 108.535V109.029L159.316 110.49L158.707 110.714C158.199 111.023 157.573 111.158 156.953 111.092C156.607 111.092 156.253 111.092 155.971 111.092L155.371 110.667L154.907 111.054H153.28L152.626 111.525C151.717 111.579 150.753 111.525 149.835 111.525L149.589 110.706L148.826 110.552L148.262 110.119L147.881 111.046L147.253 110.644H145.562C145.181 111.154 145.435 111.695 145.372 112.19L145.881 112.669C145.599 112.908 145.599 112.908 144.399 112.754C144.308 112.336 144.217 111.919 144.163 111.649L142.963 112.228L143.763 113.194C142.772 113.542 141.69 113.194 140.69 113.418L140.008 114.029L140.508 114.531L139.527 114.871L139.981 115.558C139.981 116.099 139.463 116.285 138.999 116.571L138.399 116.362C138.072 115.69 139.136 115.535 138.963 114.871C138.863 114.477 139.29 113.982 139.463 113.58C139.308 113.449 139.245 113.349 139.181 113.349C137.927 113.349 136.663 113.349 135.345 113.349L135.027 114.121L133.982 114.446L135.136 114.909V115.388C134.709 115.79 134.227 115.744 133.318 115.195H131.609L130.782 116.084H128.964L128.4 116.524H127.318L126.827 116.107H124.673C124.455 115.914 124.328 115.806 124.146 115.659L123.528 116.084H118.264C118.201 116.084 118.128 116.014 118.055 115.976L117.728 115.203H117.092L116.592 116.107L116.001 115.659C115.092 116.779 114.183 115.574 113.201 115.659C113.11 116.153 113.038 116.578 112.956 117.011C112.047 116.725 112.956 115.952 112.274 115.674L111.674 116.13L111.347 115.358L110.047 114.84L109.365 115.303L108.52 114.832C108.447 114.894 108.247 114.979 108.247 115.064C108.247 115.976 108.247 116.88 108.247 117.838L107.456 117.992L106.656 117.22V116.362L107.238 115.697C107.002 115.025 106.265 114.778 105.865 114.299C105.338 114.345 104.593 113.974 104.374 114.987L105.756 115.759C105.429 115.976 105.32 116.115 105.202 116.122C104.129 116.122 103.065 116.122 102.093 116.122L101.329 115.582L100.42 116.053C100.011 115.999 100.275 115.612 100.102 115.388L98.7567 114.794C98.6658 115.002 98.5657 115.265 98.4567 115.566C98.1476 115.775 98.0204 115.775 95.8842 115.512L96.3842 115.025C95.566 114.763 95.566 114.755 94.8297 115.025L95.3024 115.489L94.5388 116.161C93.6843 115.782 93.7661 114.832 92.9207 114.353H91.7571L91.0573 115.041V115.991L92.5753 116.663H93.4843C93.7843 117.057 94.6661 117.235 94.0843 118L93.4843 117.606H91.9844L91.3481 117.158L90.1392 117.05C90.0028 116.733 89.8937 116.462 89.7573 116.13L88.8483 116.996C88.1393 117.134 87.408 117.171 86.6848 117.104C86.0667 117.104 85.4485 117.104 84.8668 117.104L84.4304 116.733L83.585 117.073V115.365L82.4487 115.025C82.4487 114.786 82.5305 114.523 82.5669 114.299L84.0032 114.917L84.1486 116.007C84.7667 116.045 84.5304 115.659 84.6213 115.404C85.0485 114.909 85.9212 115.404 86.4394 114.817C86.812 114.415 87.7757 115.01 88.3302 114.477C88.2484 114.415 88.1847 114.314 88.121 114.307H86.0121L84.8304 113.356H84.2396C84.1396 113.611 84.0305 113.874 83.8759 114.237L83.3033 113.866C82.634 113.726 81.9318 113.747 81.2761 113.928L81.876 114.5C81.5033 114.871 81.0216 114.639 80.5944 114.716L79.9126 114.175L78.9036 114.662L78.3763 114.284L77.9127 114.67H69.7314C69.6223 114.492 69.4406 114.152 69.2497 113.828C69.3285 113.781 69.3954 113.721 69.4465 113.652C69.4975 113.582 69.5317 113.505 69.547 113.424C69.5623 113.344 69.5583 113.261 69.5354 113.182C69.5124 113.102 69.4708 113.028 69.4133 112.962L68.777 112.854L68.1861 113.325H65.459C65.0045 113.009 65.2863 112.599 65.2045 112.251L65.7408 111.649C65.7408 111.062 65.2136 110.953 64.9954 110.644C64.0864 110.791 63.4046 110.219 62.6229 109.972C62.1541 109.759 61.6271 109.655 61.0957 109.671L60.7411 108.813H58.6958C57.9595 108.435 57.4687 108.149 56.9415 107.932C56.4142 107.716 55.6688 108.048 55.2961 107.415H53.7053L53.0872 106.943H51.4691L50.8873 106.487L50.4601 106.851C50.1289 106.708 49.7855 106.586 49.4329 106.487C49.1147 106.418 48.7239 106.557 48.5239 106.248C48.8875 105.707 49.7601 106.356 50.1056 105.761C49.5602 105.344 48.9057 105.645 48.2875 105.56L47.6239 105.05C47.5239 105.514 47.433 105.923 47.333 106.402C47.1057 106.402 46.7148 106.534 46.6421 106.449C46.2058 105.916 45.5604 106.039 44.5968 105.939L43.5969 105.089L42.8606 105.498C42.6334 105.39 42.3516 105.135 42.0789 105.135C41.8062 105.135 41.5062 105.383 41.1699 105.522L40.7154 105.135H37.9882C37.761 104.95 37.6246 104.741 37.5065 104.749C36.5974 104.826 35.9429 104.27 35.0884 104.146C34.3523 104.04 33.6387 103.842 32.9704 103.559C32.3887 103.312 31.5796 103.273 31.2615 102.632C31.221 102.564 31.1578 102.507 31.0796 102.47C30.3524 102.122 29.4434 102.076 28.8616 101.504C27.9526 101.612 27.698 100.731 26.9254 100.499C26.1961 100.328 25.5177 100.028 24.9346 99.6185C23.8256 99.6726 23.8529 98.8459 23.4711 98.2973L22.962 98.2432C22.8257 98.1505 22.6802 98.0732 22.553 97.9728C21.853 97.3778 21.1531 96.7906 20.4622 96.1879C19.7713 95.5853 18.8623 95.029 18.5623 94.1172C17.7715 93.7927 17.826 92.966 17.2352 92.5256C16.6443 92.0851 16.217 91.6679 15.6625 91.1966V88.1986C15.3716 87.426 14.5535 87.426 13.9899 87.0397C13.9899 86.8542 14.0536 86.6456 14.0899 86.437C14.6081 86.437 14.8898 87.0783 15.4807 86.692C15.7898 86.3752 15.4807 85.9889 15.6171 85.6798C15.2262 85.2703 14.708 85.5098 14.299 85.4325L13.1446 86.3597C12.6173 85.5098 13.1445 84.5672 12.7809 83.6709L11.5538 83.5627L10.7628 82.9292V82.4578L10.2175 82.1797L9.19025 82.7592C8.59029 83.0451 8.06308 82.1642 7.28132 82.2338C6.88134 81.6929 6.23591 81.7625 5.55414 81.7547C5.53804 81.5485 5.47635 81.3466 5.37233 81.1598C5.06326 80.8043 4.6724 80.4876 4.31788 80.1476V79.6685L5.22691 79.3904C5.49052 79.0504 5.34507 78.6795 5.32689 78.3164L4.56333 77.6674H4.01788C3.55428 77.4047 3.87242 76.7711 3.26338 76.5547C2.65433 76.3384 2.74526 75.8362 2.49982 75.4576C2.25439 75.079 2.01803 74.6849 1.75442 74.3449C1.4908 74.005 1.63627 73.6264 1.609 73.2632C1.58172 72.9001 1.609 72.4906 1.609 72.1197C1.29993 71.6175 0.981747 71.1152 0.509053 70.3658V68.7277L0 68.2951C0 67.2674 0 66.2012 0 65.1426C0 65.0808 0.0999752 65.019 0.209058 64.8954L0.727211 65.2353L2.03621 64.7099C2.03621 64.7099 2.14529 64.6249 2.14529 64.5631C2.14529 63.9605 2.14529 63.3578 2.14529 62.8015L1.66353 62.392V59.5795L2.6271 59.255L2.09985 58.5364C2.31802 58.2119 2.518 57.9106 2.78162 57.532C2.56345 57.3079 2.35436 57.0838 2.13619 56.8443V55.5308L1.5817 54.9899V52.2934C1.41807 52.162 1.29992 52.0538 1.14538 51.9225L1.68168 51.1498L1.09084 50.4158V40.8812C1.6908 40.549 1.53626 39.7918 2.16349 39.4363V37.6361L2.65434 37.2188V34.02L3.18159 33.5719V29.0673L3.73609 28.5033V27.607L3.29067 27.1279V23.0251L3.81792 22.5461V19.5018C4.24517 18.8219 4.59058 18.2578 4.93601 17.7015C4.72693 17.4234 4.53602 17.1839 4.29058 16.8516L4.85417 16.079C4.85417 15.6772 4.91785 15.1672 4.95421 14.6341C5.57235 14.7423 6.02684 15.1518 6.63589 15.005C7.40856 14.7654 7.54493 14.0469 7.89945 13.3901L8.96299 14.0701C9.48114 13.6451 9.09024 13.081 9.17205 12.7024L9.91746 11.443L10.6083 11.2885L11.5901 10.454H13.1446C13.3627 10.2995 13.5536 10.1527 13.8718 9.91317H16.6806V8.04333L17.2352 7.44839V6.26623C17.6351 5.81036 17.9442 5.33903 18.6805 5.38539L19.6441 3.6392H21.2258L21.853 3.16787H23.4165L24.1165 2.61929L25.1255 3.1138L25.5345 2.7661L26.8435 2.64247C26.8435 2.44158 26.9436 2.23297 27.0072 1.99344C27.0981 1.93936 27.2344 1.80027 27.3799 1.79254C28.5434 1.79254 29.707 1.79254 30.9251 1.79254L31.5342 1.35986H32.6068L33.8067 2.33341L34.8157 1.8389L35.2339 2.19434L36.1429 1.73848L37.052 2.23296H39.0973L39.6609 1.80028H43.3878L43.7879 1.48349C43.9311 1.41348 44.0883 1.36635 44.2515 1.34441C45.415 1.34441 46.5785 1.34441 47.7239 1.34441L48.1238 1.68438C48.5231 1.82925 48.9679 1.85645 49.3874 1.76165L49.8237 1.39077H53.9416L54.9779 0.819013L55.887 1.32895H57.9414L58.4868 0.89626L59.0504 1.32895L59.5049 0.942618H67.3225L69.3951 0H73.1221L74.0311 0.958086L74.7039 0.440396L75.1584 0.834458H77.44C77.5581 0.726286 77.6855 0.618113 77.8673 0.471309H79.5763L80.0671 0.88855C80.6216 0.88855 81.2397 0.88855 81.8851 0.88855C82.0504 0.873935 82.2125 0.840135 82.3669 0.788101L82.767 0.44813H84.9213L85.4758 0.88855L86.0303 0.44813C86.6121 0.262693 86.7938 0.772649 87.3211 0.934907L88.2938 0.479043H89.83L90.2845 0.865371H93.0116C93.3207 0.757199 93.5116 0.262685 94.0843 0.440396L94.6479 0.88855H95.7024L96.266 0.455864H101.629L102.211 0.865371L102.656 0.479043H106.529L106.983 0.873081L107.565 0.44813H109.147L109.72 0.880816L110.192 0.479043L110.856 0.89626C111.225 0.914582 111.596 0.914582 111.965 0.89626C112.218 0.898945 112.462 0.818704 112.647 0.672207C113.119 0.108168 114.219 0.927179 114.401 0.0154446H118.301L118.864 0.44813H119.901L120.482 0.89626L120.955 0.494488L121.591 0.89626H124.228L124.737 1.33668L125.318 0.927173H126.909L127.473 1.35986H128.518L129.1 1.80801L129.482 1.48349C129.554 1.48349 129.627 1.37533 129.691 1.37533H135L135.436 1.00444C135.771 1.17146 136.137 1.28903 136.518 1.35215C136.739 1.33974 136.96 1.37669 137.16 1.45936C137.359 1.54204 137.529 1.66755 137.654 1.82346L138.245 1.37533L138.572 1.68438C138.73 1.75051 138.899 1.79732 139.072 1.82346C139.881 1.82346 140.681 1.82346 141.435 1.82346L142.145 1.29032L144.454 2.32568L145.308 1.8389H146.29L146.844 2.27932L147.217 1.95482C147.367 1.89611 147.526 1.85454 147.69 1.83119H152.762L153.262 2.26388H156.498L157.016 2.7043H160.652L161.307 3.16787L161.87 2.75836H164.007C164.17 2.89744 164.37 3.04426 164.57 3.20652H167.243L167.734 3.62373L168.87 3.69329L169.406 4.07189L170.134 3.57738L171.106 4.09507H173.624L174.242 4.56638H174.76L175.324 4.11825C175.888 3.94826 176.088 4.40412 176.488 4.59729H178.569C178.942 5.02998 179.397 5.19223 180.487 4.75954C180.224 4.92952 180.424 4.79819 180.633 4.65911L182.36 5.43177L182.869 5.03771C183.424 4.86 183.624 5.33132 184.123 5.54766L185.078 5.09951L185.496 5.45495H187.587L188.232 5.92626H189.241L189.85 6.39759H192.514L192.905 6.72209C192.968 6.76845 193.032 6.85345 193.105 6.85345C194.35 6.85345 195.604 6.85345 196.841 6.85345L197.332 7.27841H199.486C199.713 7.46384 199.841 7.57201 199.995 7.71109L201.204 7.82698C201.295 7.89652 201.395 7.94289 201.404 8.0047C201.426 8.14842 201.405 8.29449 201.343 8.42949C201.281 8.56449 201.18 8.6841 201.05 8.77736C200.881 9.01524 200.764 9.27695 200.704 9.55002L200.104 9.58864L199.531 9.14051L198.95 9.59637H197.822C197.25 10.0522 197.822 10.6317 197.359 11.2499L194.968 12.3007H193.723L191.777 13.2433H190.314L189.741 13.6914C189.323 13.1197 188.696 13.2201 188.05 13.3051L187.669 14.155H185.332C185.269 14.665 185.769 14.7809 185.969 15.0513C186.223 14.8813 186.487 14.7191 186.687 14.5955C187.396 14.6882 187.596 15.1904 188.032 15.4145C188.44 15.5943 188.862 15.7492 189.296 15.8781L189.75 15.569L190.314 15.9785H192.405C192.896 16.3185 192.768 17.0139 193.386 17.2225C193.88 17.3569 194.34 17.5693 194.741 17.8483H196.259L196.768 18.281H198.922L199.422 18.7137H201.531L202.149 19.185H204.258L204.858 19.6563H206.449C206.585 19.7645 206.713 19.8727 206.922 20.0581L208.104 20.1431L208.549 20.5217L209.076 20.1818C210.076 19.7104 210.758 20.9544 211.712 20.5063L212.376 21.0162H214.485L215.094 21.4876H216.657L217.276 21.9589H219.921L220.421 22.3838H222.039L222.548 22.8165H224.602C225.093 23.311 225.975 23.1951 226.339 23.7592C226.702 24.3232 226.957 24.7636 227.248 25.2581L226.457 25.9612C225.839 26.0848 225.23 26.2239 224.802 25.6522L223.757 26.9502C223.057 27.0275 222.421 26.8111 221.857 27.1202C221.857 27.4138 221.857 27.4138 224.284 27.4525C224.675 28.1479 225.657 28.2251 226.366 28.766H227.893L228.729 29.4382L228.284 29.9249C228.452 30.052 228.597 30.2006 228.711 30.3654C228.791 30.5817 228.846 30.8043 228.875 31.0298H236.82L238.865 31.9725H242.91L243.819 32.5134L245.001 31.9339L245.846 32.4747H247.41C247.792 33.0774 248.501 32.8456 249.064 32.9692L250.046 33.8037H251.073L251.691 34.275H253.273L253.873 34.7463H257.091L258 35.519C257.644 35.7258 257.312 35.9613 257.009 36.2221C256.86 36.3577 256.678 36.4645 256.475 36.5352C256.273 36.6058 256.055 36.6387 255.837 36.6316C255.837 36.902 255.837 37.1106 255.773 37.3347L257.009 37.7288L255.982 38.3701C255.846 38.2619 255.718 38.1537 255.582 38.0301C255.086 38.2575 254.543 38.3993 253.982 38.4473C253.537 38.4473 253.255 39.0578 252.682 38.8955L252.446 39.6682L250.519 41.1516C249.992 41.028 249.837 41.5766 249.401 41.6075C249.128 41.6075 248.864 41.6075 248.583 41.6075C247.673 41.9475 247.555 42.7433 247.201 43.3615C246.973 43.6902 246.715 44.0029 246.428 44.2964H245.092C244.283 44.4818 243.965 45.2467 243.156 44.8372L242.519 44.3968L241.965 44.7986H239.092L237.929 46.0348L236.865 46.3516V46.8461C236.333 47.4343 235.627 47.8927 234.82 48.1751C234.184 48.3296 234.356 49.0868 233.847 49.3882H233.411L232.002 50.5008C232.229 50.9876 231.656 51.1421 231.529 51.4743C231.856 51.7293 232.22 51.9688 231.92 52.4247C231.547 52.726 231.075 52.4788 230.675 52.5715C230.475 52.7338 230.275 52.8806 230.084 53.0274C229.284 52.7337 228.802 53.4137 228.138 53.4678C227.533 53.4947 226.926 53.4947 226.32 53.4678C225.93 54.1632 225.157 53.7691 224.548 54.055V55.4381L223.866 56.118C224.689 56.2086 225.519 56.2396 226.348 56.2107L226.93 56.6743H228.593C228.693 56.9293 228.802 57.192 228.92 57.447C228.985 57.495 229.062 57.5309 229.144 57.5524C229.226 57.5739 229.313 57.5804 229.399 57.5717C229.485 57.563 229.567 57.5391 229.641 57.5017C229.715 57.4642 229.779 57.414 229.829 57.3542C229.891 57.2823 229.97 57.2222 230.061 57.1777C230.152 57.1332 230.253 57.1053 230.358 57.0959C230.462 57.0864 230.568 57.0956 230.668 57.1228C230.768 57.15 230.86 57.1946 230.938 57.2538V57.7947C231.466 58.2583 232.129 57.926 232.756 58.0264L233.329 58.4437L233.893 58.0187H236.556L237.12 58.4514L237.792 57.9415L238.81 58.3973L239.229 58.0419L239.819 58.4669C241.438 58.4669 243.119 58.4669 244.837 58.4669V59.1623C244.728 59.255 244.665 59.3554 244.601 59.3554H239.765L239.201 58.9073C238.62 58.7296 238.438 59.2163 237.938 59.4018L235.938 58.5287L235.456 58.8764C233.802 58.9459 232.12 58.8764 230.338 58.9382C230.847 59.3632 230.847 59.3709 231.666 59.3554L232.238 59.7958L232.693 59.4095H235.511L235.938 59.7727H238.72L239.629 60.8698C239.692 61.0321 239.065 61.1712 238.965 61.4957C238.847 61.9902 239.356 62.1447 239.701 62.5388C240.919 62.616 242.247 62.5388 243.565 62.5928L244.019 62.9792L245.719 63.0487L246.128 63.3964C246.601 63.296 247.037 62.6238 247.537 63.2496C247.655 63.6591 247.355 63.8368 247.146 64.0841C246.967 64.3862 246.83 64.7052 246.737 65.0344L245.683 63.8523L244.874 64.1072V64.6172L242.792 66.3789L242.601 67.0124L241.692 67.2906L242.283 68.1869C241.765 68.7123 241.183 68.4959 240.692 68.4805C240.201 68.465 239.892 69.1604 239.301 68.9518C238.71 68.7432 238.447 69.4308 237.729 69.4231L237.038 68.9673C236.656 68.8823 236.42 69.0909 236.129 69.284C235.847 69.4226 235.54 69.5192 235.22 69.5699C235.083 70.134 235.329 70.6748 234.983 71.2311L234.42 70.8525C233.938 70.9144 234.174 71.2852 234.038 71.5711C233.717 71.6149 233.409 71.7093 233.129 71.8493C232.838 72.0502 232.593 72.2433 232.147 72.1429C232.002 71.8647 231.829 71.5634 231.611 71.1616C231.456 71.5247 231.347 71.7875 231.211 72.1351H228.484L227.402 73.0469L226.848 72.6606C226.266 72.9001 226.048 73.6109 225.184 73.5955C224.939 73.5955 224.493 73.9741 224.457 74.2136C224.441 74.4722 224.332 74.7204 224.145 74.9248C223.959 75.1292 223.702 75.2801 223.412 75.3571C222.793 75.5503 222.266 76.0834 221.594 75.8671L220.512 76.5934L220.93 77.3197L222.084 76.7634C222.148 76.9874 222.203 77.196 222.284 77.536L220.703 77.791C220.703 77.9764 220.63 78.185 220.594 78.3628C220.966 78.7491 221.603 78.5946 221.966 79.0195C222.139 79.205 222.775 79.1045 223.203 79.1354C223.203 79.5526 222.793 79.6222 222.593 79.9081L220.775 79.9931C220.712 80.1785 220.639 80.3794 220.512 80.7657C220.384 81.1521 219.603 80.6653 219.212 80.9434C219.067 81.0839 218.886 81.1935 218.682 81.2633C218.478 81.3331 218.258 81.3611 218.039 81.3452C217.976 81.6156 217.921 81.8242 217.867 82.0483L216.403 82.6896H215.094L214.494 83.1609H210.74C210.676 83.2228 210.567 83.2691 210.549 83.3309C210.485 83.6863 210.449 84.0495 210.403 84.3663C209.949 84.7681 209.276 84.2658 208.894 84.7294C208.513 85.193 208.104 84.9535 207.649 84.9922L205.831 86.7074C205.6 86.7933 205.344 86.8186 205.097 86.7801C204.849 86.7416 204.62 86.6409 204.44 86.4911C204.158 86.3553 203.851 86.2612 203.531 86.2129L203.358 85.5176C202.804 85.5176 202.731 85.9966 202.386 86.1202C202.386 86.3211 202.386 86.4756 202.386 86.6225C202.731 86.9779 203.213 86.7461 203.658 86.8233L204.24 87.2715C204.631 87.3565 205.149 87.1169 205.504 87.4337C205.422 87.5342 205.331 87.7273 205.276 87.7196C204.424 87.7421 203.598 87.9787 202.904 88.3996C202.683 88.4985 202.452 88.5787 202.213 88.6391C202.035 88.6586 201.855 88.6586 201.677 88.6391C200.768 88.9249 200.768 89.7594 200.268 90.3003L200.677 90.648C200.386 91.297 199.577 90.648 199.141 91.0961C198.729 91.3687 198.269 91.5827 197.777 91.7297L196.113 90.957C194.059 92.1701 194.059 92.1701 193.532 93.1359H191.796L191.014 94.0786H188.732L187.941 94.6967ZM133 106.086L131.909 105.537C131.191 105.769 130.845 106.31 130.345 106.727C130.236 106.812 130.345 107.121 130.409 107.453L131.118 106.982C131.654 106.75 132.436 107.26 133 106.712C133.011 106.475 132.984 106.238 132.918 106.008L133.472 106.202C133.472 106.557 133.563 106.912 133.636 107.422C133.954 107.357 134.286 107.359 134.603 107.428C134.919 107.497 135.212 107.63 135.454 107.816C136.281 107.044 137.663 107.16 138.645 106.542L139.317 107.067L140.154 106.055C140.473 105.998 140.803 106.004 141.118 106.074C141.434 106.144 141.726 106.275 141.972 106.457H144.108L144.844 105.784L143.326 105.12H139.754C139.563 105.274 139.372 105.429 139.163 105.583H138.136L137.572 106.016H134.454L133.454 105.468C133.251 105.643 133.096 105.854 133 106.086ZM145.872 95.7707C145.781 95.5003 145.308 95.4307 145.372 95.0598C145.435 94.689 145.044 94.6117 144.69 94.5963C144.026 94.7894 143.863 95.6471 142.972 95.5157L141.845 94.604L141.336 95.508L140.308 94.6349C139.93 94.9045 139.486 95.0997 139.008 95.2066C138.918 95.6239 138.836 96.0334 138.763 96.3888C138.063 96.5975 137.854 96.1261 137.499 95.9716H136.154C136.082 95.9694 136.011 95.9564 135.945 95.9329L135.4 95.5621L134.827 95.9407L134.027 95.2066C134.109 94.998 134.191 94.7972 134.272 94.6117C136.136 94.6117 136.136 94.6117 136.09 94.2872C135.49 93.8931 134.691 94.4031 134.118 93.9781C133.854 93.5223 134.236 93.2828 134.536 93.0201C134.479 92.93 134.412 92.8446 134.336 92.7651L133.5 92.8887C133.5 93.4604 133.5 93.9163 133.5 94.3722C133.5 94.4263 133.381 94.4804 133.227 94.6117H131.663C130.754 95.1062 130.854 96.0643 129.973 96.4197L129.445 95.4771C129.055 96.2498 128.073 95.7243 127.627 96.1957C127.718 96.5588 127.436 96.9683 127.891 97.3469C128.299 97.3086 128.71 97.3086 129.118 97.3469C129.512 97.4568 129.891 97.6046 130.245 97.7873L131.264 98.1737C131.4 97.8337 131.509 97.571 131.6 97.3237H133.8L134.381 96.891C134.881 97.7023 136.09 96.9837 136.527 97.6637L137.436 97.2619L138.099 97.7719L138.654 97.3547L139.218 97.7796C139.554 97.2619 140.126 97.3624 140.645 97.3315C141.163 97.3005 141.272 96.9142 141.754 96.8369C142.235 96.7597 142.563 96.2961 142.963 95.9948L143.508 96.412H144.417L145.872 95.7707ZM158.598 104.664C157.807 104.664 157.098 104.664 156.38 104.664C156.316 104.664 156.253 104.757 156.162 104.826C156.162 105.166 156.08 105.522 156.035 105.862L155.28 106.472C154.935 106.178 154.635 105.9 154.298 105.653C154.189 105.576 153.98 105.599 153.671 105.545L152.144 107.376C151.662 107.484 151.235 107.252 150.771 107.585V108.605C151.253 108.805 151.798 108.844 152.107 109.23C152.526 109.153 153.017 109.393 153.317 109.091L153.68 108.133C153.88 108.612 153.998 108.906 154.116 109.161C155.026 109.099 155.298 109.933 155.935 110.158C156.344 110.057 156.844 110.366 157.08 109.895L156.625 109.424C157.262 108.983 158.053 109.47 158.653 109.084C158.653 108.45 157.853 109.029 157.743 108.465C157.743 108.396 157.743 108.187 157.743 107.909H159.489L160.343 107.191C159.712 107.03 159.162 106.696 158.78 106.24L159.18 105.854L158.598 104.664ZM184.36 88.6545H182.751L182.133 88.1755L181.796 88.9945L180.887 89.2572L180.724 89.9062C180.078 90.1535 179.287 89.8058 178.906 90.4316C177.306 89.659 177.306 89.659 176.297 89.5663C176.006 89.7981 175.624 89.968 175.551 90.2694C176.133 91.1193 177.16 91.382 177.933 91.8147H179.642L180.16 91.3743H182.305C183.342 90.4935 183.342 90.4935 183.533 90.6016C183.623 91.0112 183.714 91.4206 183.805 91.8765C184.396 91.5288 184.605 90.9802 185.332 90.8798C185.696 90.8257 185.987 90.4394 186.323 90.2076C186.187 89.4349 187.151 89.3113 187.423 88.7164L187.178 88.1214C186.369 88.2759 185.569 88.0287 184.878 88.2296L184.36 88.6545ZM163.634 104.054C163.17 104.316 162.725 104.154 162.261 104.216C161.907 104.517 161.552 104.857 161.152 105.158C160.961 105.305 160.907 105.383 161.152 105.483L162.061 105.761L161.498 106.279C162.034 106.719 162.689 106.41 163.252 106.487L164.634 105.784C164.752 105.514 164.834 105.313 164.907 105.128H166.025L166.607 104.664H167.67C167.97 104.27 168.825 104.1 168.315 103.366C167.68 103.218 167.007 103.243 166.388 103.435C166.325 103.698 166.279 103.907 166.197 104.208L165.288 104.092V103.049L163.843 102.446C163.625 102.833 163.416 103.219 163.216 103.575L163.634 104.054ZM201.931 78.5559C202.686 78.8727 203.086 79.6222 203.858 79.9699C204.267 79.9081 204.767 80.1399 205.013 79.7999C204.758 79.3827 204.531 79.0272 204.295 78.61L203.64 79.1122C203.54 78.6564 203.449 78.2391 203.358 77.8374L202.031 77.2965L201.586 77.6751H199.459C198.55 78.2701 198.413 78.2778 198.113 77.8992L198.659 77.366C198.577 77.1651 198.495 76.972 198.404 76.7402L197.322 77.6133L196.504 77.8219C196.504 78.0305 196.504 78.1773 196.504 78.3318L197.932 79.0118H199.641C199.664 78.79 199.71 78.5703 199.777 78.355C199.777 78.2855 200.013 78.2701 200.131 78.2314C200.25 78.5173 200.368 78.78 200.513 79.1509L201.931 78.5559ZM134.763 46.5525L136.281 45.8185L137.19 45.0458C136.754 44.6054 136.281 44.1573 135.99 43.8018C135.658 43.8347 135.323 43.8347 134.991 43.8018C134.732 43.7033 134.491 43.576 134.272 43.4233L133.827 43.8018L133.272 43.3769L132.727 43.7787L132.163 43.3846C131.745 43.7246 132.027 44.1573 131.927 44.4818C132.918 45.1617 134.627 45.0922 134.8 46.5448L134.763 46.5525ZM191.114 84.3045C191.114 84.5285 191.114 84.7526 191.114 84.9844C191.114 85.2162 191.114 85.4016 191.487 85.3553C191.95 84.8453 191.35 84.1654 191.896 83.6323L192.632 83.6786C192.641 83.9015 192.696 84.1213 192.796 84.3277C193.015 84.5669 193.261 84.7869 193.532 84.9844C193.977 84.7063 193.723 84.2968 193.814 83.9491C193.905 83.6014 194.505 83.4468 194.341 83.0064C194.295 82.8983 194.15 82.821 194.05 82.7283C193.268 83.1996 193.268 83.1996 192.232 82.9369C192.396 82.7746 192.568 82.6201 192.886 82.3265C192.169 82.252 191.445 82.2262 190.723 82.2492L188.905 83.385L189.25 84.0418C189.859 84.2504 190.05 83.7791 190.423 83.6554L191.114 84.3045ZM182.105 76.5779C181.493 76.3348 180.812 76.2463 180.142 76.323L179.233 75.6971C178.827 75.9985 178.451 76.3266 178.106 76.6784C177.724 77.1265 177.06 77.1265 176.615 77.451V77.961C176.988 78.0228 177.024 78.525 177.524 78.5173C177.642 78.2391 177.742 77.9764 177.842 77.7446C178.155 77.665 178.486 77.6551 178.805 77.716C179.123 77.7769 179.418 77.9065 179.66 78.0923L180.006 77.2347H180.86L182.105 76.5779ZM122.664 96.4275C121.91 96.5047 121.282 96.2961 120.692 96.5974C120.801 96.9683 121.191 97.1228 121.482 97.3701C122.155 97.1074 122.391 98.1428 123.091 97.7796C123.937 97.2542 123.937 96.1879 125 95.7939C124.528 95.4075 124.091 95.593 123.719 95.5389L122.664 96.4275ZM225.575 52.7492C226.202 52.8265 226.757 53.236 227.166 52.7492C227.575 52.2624 228.184 52.7029 228.62 52.4402C228.848 52.1465 229.384 52.0229 229.302 51.3816C228.957 51.2889 228.884 50.7403 228.02 50.6785C227.866 50.9412 227.23 51.0416 227.193 51.5284C227.157 52.0152 226.73 51.9997 226.339 52.1234C225.948 52.247 225.83 52.5174 225.575 52.7338V52.7492ZM148.871 80.8893L148.317 80.4489C148.017 80.843 147.162 81.0284 147.699 81.7393L148.808 81.8474L149.844 82.4115L151.244 81.0361C150.926 80.9845 150.619 80.8906 150.335 80.758C150.053 80.5648 149.826 80.3639 149.426 80.4489L148.871 80.8893ZM154.571 101.936H157.998C158.062 101.936 158.125 101.844 158.298 101.72L158.143 101.025H154.816C154.753 101.025 154.689 101.117 154.571 101.202V101.936ZM131.136 111.517L130.518 111.108C130.145 111.487 130.354 111.881 130.318 112.228C130.322 112.428 130.349 112.628 130.4 112.823C131.645 112.931 131.645 112.931 131.918 112.684C131.918 112.244 131.918 111.803 131.918 111.355C131.918 111.278 131.709 111.208 131.609 111.131L131.136 111.517ZM122.764 105.838L120.355 104.795L118.955 105.413C119.037 105.645 119.119 105.846 119.183 106.024L120.246 105.514L120.982 106.101C121.51 105.862 122.173 106.263 122.764 105.823V105.838ZM173.742 78.5714C173.351 78.6641 172.915 78.4323 172.915 78.9268C173.479 79.1972 174.097 79.0041 174.679 79.0659C174.97 78.6564 175.524 78.6486 176.06 78.4091C176.06 78.185 175.96 77.9301 175.906 77.6905H174.651L173.742 78.5714ZM152.989 89.8985C153.362 90.1921 153.816 90.0221 154.226 90.0298C154.635 90.0376 155.08 90.1612 155.307 89.7826L156.216 89.3963C155.462 88.8864 154.698 89.3499 154.098 89.0022L153.716 88.6777C153.48 89.064 153.28 89.4658 152.989 89.883V89.8985ZM126.455 102.586C126.691 102.964 126.337 103.358 126.8 103.768C127.218 103.768 127.709 103.768 128.255 103.768C128.4 103.768 128.536 103.636 128.682 103.559V103.026C128.384 102.988 128.096 102.909 127.827 102.794C127.482 102.539 127.227 102.222 126.455 102.57V102.586ZM165.543 88.6777C167.225 88.6777 168.543 88.6777 169.852 88.6777C169.915 88.6777 169.97 88.4846 170.034 88.3841C169.943 88.33 169.879 88.245 169.815 88.2373C168.57 88.2373 167.325 88.2373 166.088 88.2373C166.006 88.2064 166.007 88.3068 165.552 88.6545L165.543 88.6777ZM165.179 88.3455C164.591 88.1924 163.97 88.1528 163.361 88.2296C163.083 88.2369 162.806 88.2654 162.534 88.3146C162.598 88.6391 162.643 88.894 162.716 89.2108L163.37 88.6854L163.907 89.1181C164.083 88.955 164.282 88.8098 164.497 88.6854C164.761 88.5618 165.216 88.7936 165.188 88.3223L165.179 88.3455ZM138.881 111.749C139.954 112.615 140.063 112.646 140.526 112.221V111.765L139.018 111.139C138.972 111.347 138.927 111.548 138.89 111.726L138.881 111.749ZM139.445 89.3422V89.8213L139.681 89.6358L140.19 90.563L140.908 89.9758C140.69 89.659 140.472 89.3422 140.263 89.0563L139.445 89.3422Z" fill="#78A22F"/>
</svg>
